<svg width="24" height="24" viewBox="0 0 24 24" fill="none" xmlns="http://www.w3.org/2000/svg">
<path d="M15.8085 8.64648L10.1621 14.293L7.69141 11.8232C7.68903 11.8209 7.68665 11.8185 7.6842 11.8161C7.487 11.6229 7.17047 11.626 6.97723 11.8232C6.78394 12.0205 6.78717 12.337 6.98438 12.5303L9.80859 15.3535C9.90222 15.4474 10.0295 15.5002 10.1621 15.5C10.2947 15.5001 10.4219 15.4474 10.5156 15.3535L16.5156 9.35352C16.5179 9.35114 16.5203 9.34882 16.5227 9.34637C16.7159 9.14917 16.7128 8.83264 16.5156 8.6394C16.3184 8.44611 16.0018 8.44934 15.8085 8.64648ZM12 2C6.47717 2 2 6.47717 2 12C2 17.5228 6.47717 22 12 22C17.5201 21.9935 21.9935 17.5201 22 12C22 6.47717 17.5228 2 12 2ZM12 21C7.02942 21 3 16.9706 3 12C3 7.02942 7.02942 3 12 3C16.9683 3.00543 20.9946 7.03168 21 12C21 16.9706 16.9706 21 12 21Z" fill="#128807"/>
</svg>
