<svg width="20" height="20" viewBox="0 0 20 20" fill="none" xmlns="http://www.w3.org/2000/svg">
<path d="M15.8811 4.11881C15.7227 3.9604 15.4409 3.9604 15.2825 4.11881L10 9.39934L4.71753 4.11881C4.55906 3.9604 4.27733 3.9604 4.11886 4.11881C3.96038 4.27723 3.96038 4.55886 4.11886 4.71727L9.40132 9.9978L4.11886 15.2783C3.96038 15.4367 3.96038 15.7184 4.11886 15.8768C4.2069 15.9648 4.31255 16 4.41819 16C4.52384 16 4.62949 15.9648 4.71753 15.8768L10 10.5963L15.2825 15.8768C15.3705 15.9648 15.4762 16 15.5818 16C15.6875 16 15.7931 15.9648 15.8811 15.8768C16.0396 15.7184 16.0396 15.4367 15.8811 15.2783L10.5987 9.9978L15.8811 4.71727C16.0396 4.55886 16.0396 4.29483 15.8811 4.11881Z" fill="#E21616"/>
</svg>
