<svg width="33" height="31" viewBox="0 0 33 31" fill="none" xmlns="http://www.w3.org/2000/svg">
<rect width="33" height="31" fill="white"/>
<mask id="mask0_5731_507" style="mask-type:alpha" maskUnits="userSpaceOnUse" x="5" y="4" width="24" height="24">
<rect x="5" y="4" width="32" height="32" fill="#D9D9D9"/>
</mask>
<g mask="url(#mask0_5731_507)">
<path d="M7 28V25.0001H27V28H7ZM9.50003 22.5001V19.4424L18.4346 10.5271L21.4731 13.5655L12.5577 22.5001H9.50003ZM11 21.0001H11.9L19.3654 13.5655L18.4346 12.6347L11 20.1001V21.0001ZM22.4827 12.5232L19.4443 9.504L20.9173 8.03095C21.1006 7.83735 21.3308 7.74311 21.6077 7.74825C21.8846 7.75338 22.1147 7.84761 22.2981 8.03095L23.9365 9.66935C24.1198 9.85268 24.2147 10.0802 24.2211 10.352C24.2275 10.6238 24.1391 10.8565 23.9557 11.0501L22.4827 12.5232Z" fill="black"/>
</g>
</svg>
